<?xml version="1.0" encoding="UTF-8"?>
<!DOCTYPE svg PUBLIC "-//W3C//DTD SVG 1.1//EN" "http://www.w3.org/Graphics/SVG/1.1/DTD/svg11.dtd">
<!-- Creator: CorelDRAW -->
<svg xmlns="http://www.w3.org/2000/svg" xml:space="preserve" width="121.179mm" height="101.025mm" version="1.1" style="shape-rendering:geometricPrecision; text-rendering:geometricPrecision; image-rendering:optimizeQuality; fill-rule:evenodd; clip-rule:evenodd"
viewBox="0 0 12118 10102"
 xmlns:xlink="http://www.w3.org/1999/xlink">
 <defs>
  <style type="text/css">
   <![CDATA[
    .fil3 {fill:#BDBD34;fill-rule:nonzero}
    .fil2 {fill:#D2D244;fill-rule:nonzero}
    .fil5 {fill:#929013;fill-rule:nonzero}
    .fil4 {fill:#A6A422;fill-rule:nonzero}
    .fil30 {fill:#B3B12C;fill-rule:nonzero}
    .fil7 {fill:#666100;fill-rule:nonzero}
    .fil6 {fill:#7B7601;fill-rule:nonzero}
    .fil19 {fill:#FFF5E6;fill-rule:nonzero}
    .fil15 {fill:#766A6A;fill-rule:nonzero}
    .fil24 {fill:#A49595;fill-rule:nonzero}
    .fil16 {fill:#948585;fill-rule:nonzero}
    .fil17 {fill:#B3A2A2;fill-rule:nonzero}
    .fil18 {fill:#D2BEBE;fill-rule:nonzero}
    .fil14 {fill:#FFE6CC;fill-rule:nonzero}
    .fil13 {fill:#FFC08A;fill-rule:nonzero}
    .fil20 {fill:#F6E9DA;fill-rule:nonzero}
    .fil21 {fill:#EEDDD0;fill-rule:nonzero}
    .fil1 {fill:#E9DAD2;fill-rule:nonzero}
    .fil22 {fill:#DFCDC3;fill-rule:nonzero}
    .fil8 {fill:#E1CAC3;fill-rule:nonzero}
    .fil9 {fill:#D9C2BB;fill-rule:nonzero}
    .fil23 {fill:#D7C0B8;fill-rule:nonzero}
    .fil0 {fill:#CDB4AC;fill-rule:nonzero}
    .fil25 {fill:#BECAD4;fill-rule:nonzero}
    .fil28 {fill:#98ACBB;fill-rule:nonzero}
    .fil26 {fill:#658192;fill-rule:nonzero}
    .fil27 {fill:#7C95A9;fill-rule:nonzero}
    .fil29 {fill:#1D4150;fill-rule:nonzero}
    .fil31 {fill:#2E5061;fill-rule:nonzero}
    .fil32 {fill:#002433;fill-rule:nonzero}
    .fil12 {fill:black;fill-rule:nonzero}
    .fil33 {fill:#4C4C4C;fill-rule:nonzero}
    .fil11 {fill:#B2B2B2;fill-rule:nonzero}
    .fil10 {fill:white;fill-rule:nonzero}
   ]]>
  </style>
 </defs>
 <g id="Layer_x0020_1">
  <metadata id="CorelCorpID_0Corel-Layer"/>
  <g id="vc099598.ai">
   <g>
    <path class="fil0" d="M729 6229l6576 0c399,0 725,-325 725,-725l0 -4770c0,-399 -326,-724 -725,-724l-6576 0c-400,0 -725,325 -725,724l0 4770c0,400 325,725 725,725z"/>
    <path class="fil1" d="M1355 10102c-386,0 -700,-313 -700,-699l0 -8046c0,-385 314,-699 700,-699l10062 0c386,0 700,314 700,699 0,0 0,7355 0,8001 -1803,0 -7034,0 -7034,0 -271,0 -492,221 -492,492 0,0 0,216 0,252l-3236 0z"/>
    <polygon class="fil2" points="7071,8466 10045,8466 10045,5898 7071,5898 "/>
    <polygon class="fil3" points="6908,8480 9347,8480 9347,5902 6908,5902 "/>
    <polygon class="fil4" points="7032,8487 8936,8487 8936,5899 7032,5899 "/>
    <polygon class="fil5" points="7156,8495 8524,8495 8524,5897 7156,5897 "/>
    <polygon class="fil6" points="7281,8503 8112,8503 8112,5895 7281,5895 "/>
    <polygon class="fil7" points="7118,8517 7414,8517 7414,5898 7118,5898 "/>
    <polygon class="fil0" points="10478,8202 10682,8202 10902,7814 10698,7814 "/>
    <polygon class="fil0" points="10462,8588 10666,8588 10886,8200 10682,8200 "/>
    <polygon class="fil0" points="10445,8974 10649,8974 10869,8586 10666,8586 "/>
    <polygon class="fil0" points="10429,9360 10633,9360 10853,8972 10649,8972 "/>
    <polygon class="fil0" points="10878,8202 11081,8202 11302,7814 11098,7814 "/>
    <polygon class="fil0" points="10861,8589 11065,8589 11285,8200 11081,8200 "/>
    <polygon class="fil0" points="10845,8975 11049,8975 11269,8587 11065,8587 "/>
    <polygon class="fil0" points="10829,9361 11032,9361 11253,8973 11049,8973 "/>
    <polygon class="fil0" points="11277,8203 11481,8203 11701,7815 11497,7815 "/>
    <polygon class="fil0" points="11261,8589 11465,8589 11685,8201 11481,8201 "/>
    <polygon class="fil0" points="11245,8975 11448,8975 11669,8587 11465,8587 "/>
    <polygon class="fil0" points="11228,9361 11432,9361 11652,8973 11448,8973 "/>
    <polygon class="fil0" points="11677,8203 11881,8203 12101,7815 11897,7815 "/>
    <polygon class="fil0" points="11661,8589 11864,8589 12084,8201 11881,8201 "/>
    <polygon class="fil0" points="11644,8975 11848,8975 12068,8587 11864,8587 "/>
    <polygon class="fil8" points="5,2175 12117,2175 12117,2032 5,2032 "/>
    <polygon class="fil0" points="11628,9362 11832,9362 12052,8973 11848,8973 "/>
    <polygon class="fil9" points="3,4891 3,4639 11480,4639 11477,4891 "/>
    <polygon class="fil9" points="2,4506 2,4469 11477,4469 11477,4506 "/>
    <polygon class="fil9" points="2,4374 2,4285 11483,4285 11481,4374 "/>
    <polygon class="fil9" points="5,4184 5,4112 11480,4112 11480,4184 "/>
    <polygon class="fil9" points="5,3953 5,3815 11480,3815 11480,3953 "/>
    <polygon class="fil9" points="2,3658 2,3564 11480,3555 11481,3658 "/>
    <polygon class="fil9" points="5,3378 5,3283 11478,3282 11478,3378 "/>
    <polygon class="fil9" points="3,3155 3,2978 11463,2978 11463,3155 "/>
    <path class="fil9" d="M12118 1358c0,0 0,213 0,570l-12110 0 -3 -1248c0,-380 366,-684 752,-672l6662 6c514,79 617,551 602,645l3397 0c386,0 700,314 700,699z"/>
    <path class="fil1" d="M1842 2826c-219,0 -396,-177 -396,-395l0 -781c0,-218 177,-396 396,-396l10260 0 0 -41 -10260 0c-241,0 -437,196 -437,437l0 781c0,241 196,436 437,436l10274 0 0 -41 -10274 0z"/>
    <polygon class="fil0" points="10329,7692 12105,7692 12105,1287 10329,1287 "/>
    <path class="fil7" d="M7481 9964c-278,0 -567,-222 -567,-500l0 -51c0,-277 311,-506 589,-506 0,0 2275,3 2546,3 0,332 0,737 0,1057 -271,0 -2568,-3 -2568,-3z"/>
    <path class="fil10" d="M7529 9867c-265,0 -482,-188 -482,-419l0 -43c0,-231 217,-419 482,-419 0,0 2261,0 2521,0 0,277 0,614 0,881 -260,0 -2521,0 -2521,0z"/>
    <polygon class="fil11" points="7402,9113 10052,9113 10052,9052 7402,9052 "/>
    <polygon class="fil11" points="7402,9250 10052,9250 10052,9189 7402,9189 "/>
    <polygon class="fil11" points="7403,9387 10053,9387 10053,9326 7403,9326 "/>
    <polygon class="fil11" points="7403,9524 10053,9524 10053,9463 7403,9463 "/>
    <polygon class="fil11" points="7404,9660 10053,9660 10053,9599 7404,9599 "/>
    <polygon class="fil11" points="7404,9797 10054,9797 10054,9736 7404,9736 "/>
    <polygon class="fil1" points="988,448 7917,448 7917,405 988,405 "/>
    <path class="fil1" d="M789 407c-161,0 -283,45 -363,136 -117,132 -101,312 -99,328l0 4013 41 0 0 -4014 0 -1 0 -2c0,-1 -19,-176 89,-298 72,-80 184,-121 332,-121l215 0 0 -41 -215 0z"/>
    <path class="fil1" d="M4012 656c0,165 46,289 136,369 127,111 293,95 309,93l1268 0 0 -41 -1269 0 -2 0 -1 0c-2,1 -162,19 -278,-83 -81,-72 -122,-185 -122,-338l0 -656 -41 0 0 656z"/>
    <polygon class="fil12" points="6990,4075 7694,4075 7694,3572 6990,3572 "/>
    <polygon class="fil13" points="7241,4074 7474,4074 7474,3571 7241,3571 "/>
    <path class="fil14" d="M7365 3456c859,-1 1557,-701 1556,-1560 -1,-859 -701,-1557 -1560,-1556 -859,1 -1557,701 -1556,1560 1,859 701,1557 1560,1556z"/>
    <path class="fil13" d="M8624 2050c12,-674 -300,-1025 -425,-1162l-585 1c0,588 2,1854 2,2394 551,-121 999,-648 1008,-1233z"/>
    <path class="fil12" d="M7798 1730c45,0 81,-36 81,-80 0,-44 -37,-80 -81,-80 -43,0 -79,36 -79,80 0,44 36,80 79,80z"/>
    <polygon class="fil12" points="7256,2307 7034,2308 7034,2111 7256,2111 7256,1982 6896,1982 6897,2440 7257,2439 "/>
    <polygon class="fil12" points="6199,1475 6738,1474 6738,1346 6198,1347 "/>
    <polygon class="fil10" points="7242,4108 7476,4108 7476,3850 7242,3850 "/>
    <polygon class="fil12" points="7560,1359 7560,1487 8025,1486 8025,1358 "/>
    <path class="fil13" d="M6347 2668c-199,0 -360,-160 -360,-359 -1,-199 160,-360 358,-361 199,0 361,161 361,360 0,198 -161,360 -359,360z"/>
    <path class="fil12" d="M6445 1714c44,0 79,-36 79,-81 0,-44 -35,-79 -79,-79 -45,0 -80,36 -80,79 0,45 36,81 80,81z"/>
    <path class="fil13" d="M9120 2317c-151,0 -275,-126 -275,-281 0,-155 123,-282 275,-282 151,0 275,126 275,282 0,155 -123,281 -275,281z"/>
    <path class="fil12" d="M9410 1780c-64,-67 -149,-106 -242,-109l-2 83c70,2 135,32 183,84 48,50 73,117 71,188 -3,70 -32,134 -83,182 -52,48 -119,73 -188,71 -10,0 -24,-1 -33,-3l-13 83c13,2 30,4 42,4 93,3 181,-30 248,-94 68,-63 107,-148 110,-241 3,-92 -31,-180 -93,-248z"/>
    <path class="fil12" d="M5692 1889c1,909 741,1646 1649,1645 908,-1 1646,-741 1645,-1649 -1,-474 -204,-903 -527,-1203 38,-65 76,-132 114,-199 389,343 635,844 636,1402 2,1032 -837,1872 -1868,1873 -1031,2 -1872,-836 -1873,-1868 -1,-559 245,-1062 634,-1405 46,56 93,114 142,173 -339,302 -553,743 -552,1231z"/>
    <polygon class="fil12" points="8275,1057 8954,1040 9131,1707 8276,1705 "/>
    <path class="fil12" d="M6116 790c-83,-28 -161,-55 -228,-77 168,-208 383,-383 639,-507 808,-389 1760,-146 2290,535 -85,11 -173,25 -262,37 -479,-522 -1261,-693 -1931,-370 -198,96 -369,227 -508,382z"/>
    <polygon class="fil15" points="2327,10062 4069,10062 4069,5758 2327,5758 "/>
    <polygon class="fil16" points="2327,10062 3597,10062 3597,6082 2327,6082 "/>
    <polygon class="fil17" points="2327,10061 3125,10061 3125,6405 2327,6405 "/>
    <polygon class="fil18" points="2327,10061 2653,10061 2653,6728 2327,6728 "/>
    <polygon class="fil12" points="6455,6171 8311,6171 8311,4056 6455,4056 "/>
    <polygon class="fil10" points="6628,5995 8123,5995 8123,4229 6628,4229 "/>
    <polygon class="fil12" points="7243,7179 8312,7179 8312,6032 7243,6032 "/>
    <path class="fil12" d="M7243 6032c29,0 58,0 87,2 0,355 0,755 0,1146 -29,-1 -58,-2 -87,-2 -952,0 -1725,774 -1725,1725 0,85 6,170 18,252 -411,0 -824,0 -1153,0 -7,-83 -11,-167 -11,-252 0,-1583 1288,-2871 2871,-2871z"/>
    <polygon class="fil15" points="1240,10098 4581,10098 4581,9746 1240,9746 "/>
    <polygon class="fil16" points="1239,10098 3676,10098 3676,9745 1239,9745 "/>
    <polygon class="fil17" points="1239,10098 2770,10098 2770,9744 1239,9744 "/>
    <polygon class="fil18" points="1239,10098 1864,10098 1864,9743 1239,9743 "/>
    <polygon class="fil12" points="4067,9261 5519,9261 5519,9095 4067,9095 "/>
    <polygon class="fil12" points="5179,9356 5519,9356 5519,9180 5179,9180 "/>
    <polygon class="fil12" points="6939,6095 7096,6095 7096,4178 6939,4178 "/>
    <path class="fil15" d="M751 6799c-38,0 -76,-2 -113,-6 0,-783 0,-1751 0,-2582 37,-3 75,-5 113,-5l4539 0c530,0 962,384 962,856l0 881c0,472 -432,856 -962,856l-4539 0z"/>
    <path class="fil7" d="M7481 8989c-278,0 -567,-222 -567,-500l0 -51c0,-277 311,-506 588,-506 0,0 2275,3 2547,3 0,332 0,737 0,1057 -272,0 -2568,-3 -2568,-3z"/>
    <path class="fil10" d="M7529 8892c-266,0 -482,-188 -482,-419l0 -43c0,-231 216,-419 482,-419 0,0 2260,0 2520,0 0,277 0,614 0,881 -260,0 -2520,0 -2520,0z"/>
    <polygon class="fil11" points="7402,8138 10051,8138 10051,8077 7402,8077 "/>
    <polygon class="fil11" points="7402,8275 10052,8275 10052,8214 7402,8214 "/>
    <polygon class="fil11" points="7402,8412 10052,8412 10052,8351 7402,8351 "/>
    <polygon class="fil11" points="7403,8548 10053,8548 10053,8487 7403,8487 "/>
    <polygon class="fil11" points="7403,8685 10053,8685 10053,8624 7403,8624 "/>
    <polygon class="fil11" points="7404,8822 10053,8822 10053,8761 7404,8761 "/>
    <polygon class="fil19" points="10527,7377 12106,7377 12106,5720 10527,5720 "/>
    <polygon class="fil19" points="10527,5285 12106,5285 12106,3628 10527,3628 "/>
    <polygon class="fil19" points="10527,3193 12106,3193 12106,1536 10527,1536 "/>
    <polygon class="fil19" points="10589,7382 10665,7382 10665,5922 10589,5922 "/>
    <polygon class="fil20" points="10671,7383 10751,7383 10751,5922 10671,5922 "/>
    <polygon class="fil21" points="10753,7383 10836,7383 10836,5922 10753,5922 "/>
    <polygon class="fil22" points="10836,7383 10922,7383 10922,5922 10836,5922 "/>
    <polygon class="fil23" points="10918,7383 11008,7383 11008,5923 10918,5923 "/>
    <polygon class="fil0" points="11000,7383 11093,7383 11093,5923 11000,5923 "/>
    <polygon class="fil19" points="11098,7383 11174,7383 11174,5922 11098,5922 "/>
    <polygon class="fil20" points="11180,7383 11260,7383 11260,5923 11180,5923 "/>
    <polygon class="fil21" points="11262,7383 11345,7383 11345,5923 11262,5923 "/>
    <polygon class="fil22" points="11345,7383 11431,7383 11431,5923 11345,5923 "/>
    <polygon class="fil23" points="11427,7384 11517,7384 11517,5923 11427,5923 "/>
    <polygon class="fil0" points="11509,7384 11603,7384 11603,5923 11509,5923 "/>
    <polygon class="fil19" points="11607,7383 11683,7383 11683,5923 11607,5923 "/>
    <polygon class="fil20" points="11689,7383 11769,7383 11769,5923 11689,5923 "/>
    <polygon class="fil21" points="11771,7384 11854,7384 11854,5923 11771,5923 "/>
    <polygon class="fil22" points="11854,7384 11940,7384 11940,5923 11854,5923 "/>
    <polygon class="fil23" points="11936,7384 12026,7384 12026,5924 11936,5924 "/>
    <polygon class="fil0" points="12018,7384 12112,7384 12112,5924 12018,5924 "/>
    <polygon class="fil19" points="10589,5287 10639,5287 10639,3826 10589,3826 "/>
    <polygon class="fil20" points="10643,5287 10696,5287 10696,3827 10643,3827 "/>
    <polygon class="fil21" points="10698,5287 10752,5287 10752,3827 10698,3827 "/>
    <polygon class="fil22" points="10752,5287 10809,5287 10809,3827 10752,3827 "/>
    <polygon class="fil23" points="10806,5287 10865,5287 10865,3827 10806,3827 "/>
    <polygon class="fil0" points="10860,5287 10922,5287 10922,3827 10860,3827 "/>
    <polygon class="fil19" points="10924,5287 10975,5287 10975,3827 10924,3827 "/>
    <polygon class="fil20" points="10979,5287 11031,5287 11031,3827 10979,3827 "/>
    <polygon class="fil21" points="11033,5287 11088,5287 11088,3827 11033,3827 "/>
    <polygon class="fil22" points="11087,5287 11144,5287 11144,3827 11087,3827 "/>
    <polygon class="fil23" points="11141,5288 11201,5288 11201,3828 11141,3828 "/>
    <polygon class="fil0" points="11196,5288 11257,5288 11257,3828 11196,3828 "/>
    <polygon class="fil19" points="11260,5287 11310,5287 11310,3827 11260,3827 "/>
    <polygon class="fil20" points="11314,5288 11367,5288 11367,3828 11314,3828 "/>
    <polygon class="fil21" points="11369,5288 11423,5288 11423,3828 11369,3828 "/>
    <polygon class="fil22" points="11423,5288 11479,5288 11479,3828 11423,3828 "/>
    <polygon class="fil23" points="11477,5288 11536,5288 11536,3828 11477,3828 "/>
    <polygon class="fil0" points="11531,5288 11592,5288 11592,3828 11531,3828 "/>
    <polygon class="fil19" points="10590,3197 10651,3197 10651,1737 10590,1737 "/>
    <polygon class="fil20" points="10656,3198 10720,3198 10720,1737 10656,1737 "/>
    <polygon class="fil21" points="10722,3198 10789,3198 10789,1737 10722,1737 "/>
    <polygon class="fil22" points="10788,3198 10857,3198 10857,1738 10788,1738 "/>
    <polygon class="fil23" points="10854,3198 10927,3198 10927,1738 10854,1738 "/>
    <polygon class="fil0" points="10921,3198 10995,3198 10995,1738 10921,1738 "/>
    <polygon class="fil19" points="10999,3198 11060,3198 11060,1737 10999,1737 "/>
    <polygon class="fil20" points="11065,3198 11129,3198 11129,1738 11065,1738 "/>
    <polygon class="fil21" points="11131,3198 11198,3198 11198,1738 11131,1738 "/>
    <polygon class="fil22" points="11198,3198 11267,3198 11267,1738 11198,1738 "/>
    <polygon class="fil23" points="11264,3199 11336,3199 11336,1738 11264,1738 "/>
    <polygon class="fil0" points="11330,3199 11405,3199 11405,1738 11330,1738 "/>
    <polygon class="fil19" points="11811,3198 11857,3198 11857,1738 11811,1738 "/>
    <polygon class="fil20" points="11860,3199 11908,3199 11908,1738 11860,1738 "/>
    <polygon class="fil21" points="11909,3199 11958,3199 11958,1738 11909,1738 "/>
    <polygon class="fil22" points="11958,3199 12010,3199 12010,1738 11958,1738 "/>
    <polygon class="fil23" points="12007,3199 12060,3199 12060,1739 12007,1739 "/>
    <polygon class="fil0" points="12056,3199 12112,3199 12112,1739 12056,1739 "/>
    <polygon class="fil19" points="11409,3199 11470,3199 11470,1738 11409,1738 "/>
    <polygon class="fil20" points="11475,3199 11539,3199 11539,1739 11475,1739 "/>
    <polygon class="fil21" points="11541,3199 11608,3199 11608,1739 11541,1739 "/>
    <polygon class="fil22" points="11607,3199 11677,3199 11677,1739 11607,1739 "/>
    <polygon class="fil23" points="11673,3199 11746,3199 11746,1739 11673,1739 "/>
    <polygon class="fil0" points="11740,3200 11815,3200 11815,1740 11740,1740 "/>
    <polygon class="fil12" points="7634,7532 7847,7532 7847,7371 7634,7371 "/>
    <polygon class="fil12" points="8015,7533 8228,7533 8228,7371 8015,7371 "/>
    <polygon class="fil12" points="8397,7533 8609,7533 8609,7372 8397,7372 "/>
    <polygon class="fil12" points="8778,7534 8991,7534 8991,7372 8778,7372 "/>
    <polygon class="fil12" points="9159,7534 9372,7534 9372,7372 9159,7372 "/>
    <polygon class="fil0" points="708,7745 905,7745 1119,7333 921,7333 "/>
    <polygon class="fil0" points="692,8155 890,8155 1103,7743 906,7743 "/>
    <polygon class="fil0" points="676,8565 874,8565 1087,8153 890,8153 "/>
    <polygon class="fil0" points="660,8974 858,8974 1072,8562 874,8562 "/>
    <polygon class="fil0" points="1095,7746 1293,7746 1507,7334 1309,7334 "/>
    <polygon class="fil0" points="1080,8155 1277,8155 1491,7743 1293,7743 "/>
    <polygon class="fil0" points="1064,8565 1262,8565 1475,8153 1277,8153 "/>
    <polygon class="fil0" points="1048,8975 1246,8975 1459,8563 1262,8563 "/>
    <polygon class="fil0" points="1483,7746 1681,7746 1894,7334 1697,7334 "/>
    <polygon class="fil0" points="1467,8156 1665,8156 1879,7744 1681,7744 "/>
    <polygon class="fil0" points="1451,8565 1649,8565 1863,8153 1665,8153 "/>
    <polygon class="fil0" points="1435,8975 1633,8975 1847,8563 1649,8563 "/>
    <polygon class="fil19" points="11591,5287 11669,5287 11669,3827 11591,3827 "/>
    <polygon class="fil20" points="11675,5288 11756,5288 11756,3828 11675,3828 "/>
    <polygon class="fil21" points="11759,5288 11843,5288 11843,3828 11759,3828 "/>
    <polygon class="fil22" points="11843,5288 11931,5288 11931,3828 11843,3828 "/>
    <polygon class="fil23" points="11927,5288 12018,5288 12018,3828 11927,3828 "/>
    <polygon class="fil0" points="12011,5288 12106,5288 12106,3828 12011,3828 "/>
    <polygon class="fil8" points="10329,7692 10505,7509 12104,7509 12104,7692 "/>
    <polygon class="fil8" points="10329,5672 10506,5490 12105,5490 12105,5672 "/>
    <polygon class="fil8" points="10330,3589 10506,3406 12105,3406 12105,3589 "/>
    <path class="fil24" d="M742 6591c-35,0 -70,-2 -103,-6 0,-720 0,-1610 0,-2374 33,-3 68,-5 103,-5l4174 0c487,0 884,353 884,787l0 811c0,434 -397,787 -884,787l-4174 0z"/>
    <path class="fil25" d="M4384 4701c408,0 1199,0 1710,0 -319,372 -995,1161 -995,1161l-1873 13c0,0 828,-789 1158,-1174z"/>
    <polygon class="fil26" points="3220,3585 3110,5988 4378,4725 4383,3558 "/>
    <polygon class="fil27" points="5085,4842 5085,5003 5248,5003 5248,4842 "/>
    <polygon class="fil27" points="5089,5176 5089,5338 5250,5338 5250,5176 "/>
    <polygon class="fil27" points="4929,5336 4929,5499 5090,5499 5090,5336 "/>
    <polygon class="fil27" points="4768,5497 4768,5659 4929,5659 4929,5497 "/>
    <polygon class="fil28" points="2854,3752 4427,3752 4427,3354 2790,3354 "/>
    <polygon class="fil27" points="4924,5003 4924,5165 5086,5165 5086,5003 "/>
    <polygon class="fil27" points="4766,5175 4766,5337 4928,5337 4928,5175 "/>
    <polygon class="fil27" points="4603,5331 4603,5492 4765,5492 4765,5331 "/>
    <polygon class="fil27" points="4445,5496 4445,5657 4608,5657 4608,5496 "/>
    <polygon class="fil27" points="4601,5002 4601,5164 4763,5164 4763,5002 "/>
    <polygon class="fil27" points="4444,5174 4444,5336 4606,5336 4606,5174 "/>
    <polygon class="fil27" points="4283,5334 4283,5497 4445,5497 4445,5334 "/>
    <polygon class="fil27" points="4123,5494 4123,5656 4285,5656 4285,5494 "/>
    <polygon class="fil29" points="3209,3739 3200,5818 4927,5818 4927,6322 2748,6322 2755,3316 "/>
    <polygon class="fil27" points="6186,4665 4933,5872 4933,6393 6199,5109 "/>
    <polygon class="fil12" points="2745,3380 2745,3292 4469,3292 4469,4668 4469,4687 4456,4700 3280,5875 3218,5813 4381,4651 4381,3380 "/>
    <polygon class="fil12" points="4400,4648 6112,4648 6217,4648 6142,4723 4946,5919 4884,5857 6006,4736 4400,4736 "/>
    <path class="fil12" d="M6156 5060l0 -412 88 0c1,149 1,300 0,448l-1301 1299 -76 -45 1289 -1290z"/>
    <polygon class="fil27" points="5250,5008 5250,5170 5412,5170 5412,5008 "/>
    <polygon class="fil27" points="4767,4844 4767,5006 4929,5006 4929,4844 "/>
    <path class="fil12" d="M2785 3294l4 3016 2067 0 0 -403c-567,0 -1135,0 -1704,0 1,-718 1,-1438 0,-2156l88 0 0 2067 1705 0c-1,178 -1,359 0,536l0 44 -45 0 -2205 0 0 -3106 90 2z"/>
    <polygon class="fil12" points="2755,3354 3178,3778 4414,3778 4414,3696 3233,3696 2877,3340 "/>
    <path class="fil30" d="M4312 3892c0,163 -3,510 -3,711l-950 928 0 -1639c0,0 748,0 953,0z"/>
    <path class="fil12" d="M8368 395l364 357 135 318c0,0 -855,0 -1680,-1 0,-79 0,-186 0,-186 0,0 -109,108 -186,186 -699,0 -1326,-1 -1326,-1 318,-580 940,-1008 1646,-1009l1047 336z"/>
    <polygon class="fil12" points="6828,2869 7615,2869 7615,2716 6828,2716 "/>
    <polygon class="fil10" points="5439,4935 5439,5215 5781,5536 6382,5697 6848,5621 7452,5212 7698,4686 7710,4230 7458,4230 7396,4677 7238,5029 6986,5218 6754,5360 6363,5432 5778,5240 "/>
    <polygon class="fil31" points="0,5192 0,5338 566,5338 566,6170 3457,6170 3457,6019 714,6019 714,5190 "/>
    <polygon class="fil32" points="3144,6206 3654,6206 3654,5989 3144,5989 "/>
    <polygon class="fil14" points="5896,5320 5698,5547 5506,5354 5607,5078 "/>
    <path class="fil2" d="M4312 3892c0,132 -2,411 -2,573l-765 747 0 -1320c0,0 602,0 767,0z"/>
    <path class="fil12" d="M6394 5763c-370,0 -708,-145 -959,-381 0,-71 0,-141 0,-210 231,272 575,446 959,446 693,0 1256,-563 1256,-1256 0,-85 -8,-168 -24,-248 50,0 99,0 147,0 15,81 22,163 22,248 0,773 -628,1401 -1401,1401z"/>
    <path class="fil12" d="M6394 5476c-405,0 -760,-217 -955,-541 46,0 93,0 137,0 181,258 480,426 818,426 551,0 1000,-448 1000,-999 0,-86 -11,-169 -32,-249 40,0 79,0 119,0 18,80 28,164 28,249 0,615 -500,1114 -1115,1114z"/>
    <polygon class="fil12" points="5333,4850 5369,4868 5445,4842 5453,4697 5415,4677 5350,4737 "/>
    <path class="fil12" d="M5441 5139c47,-97 14,-212 -73,-270 25,-50 63,-130 85,-173 181,105 253,335 159,527 -97,200 -340,283 -540,186 -200,-98 -284,-341 -186,-541 96,-197 332,-281 531,-191 -21,43 -60,122 -84,172 -104,-43 -225,1 -275,103 -52,105 -8,233 98,285 105,51 233,7 285,-98z"/>
    <path class="fil14" d="M5501 5101c32,-142 -59,-284 -202,-316 -142,-31 -284,60 -315,203 -31,142 59,284 202,315 143,31 284,-59 315,-202z"/>
    <polygon class="fil12" points="5147,5135 4925,4977 4891,5026 5113,5183 "/>
    <polygon class="fil12" points="5211,5009 4990,4852 4955,4900 5177,5058 "/>
    <polygon class="fil12" points="5294,4905 5073,4748 5039,4797 5260,4954 "/>
    <polygon class="fil12" points="7864,6095 8021,6095 8021,4178 7864,4178 "/>
    <path class="fil33" d="M7025 6300c56,0 101,-46 101,-102 0,-56 -45,-102 -101,-102 -56,0 -102,46 -102,102 0,56 46,102 102,102z"/>
    <path class="fil33" d="M7932 6300c56,0 101,-46 101,-102 0,-56 -45,-101 -101,-101 -56,0 -102,45 -102,101 0,56 46,102 102,102z"/>
    <path class="fil1" d="M2135 1797c105,0 191,-86 191,-191 0,-105 -86,-190 -191,-190 -105,0 -190,85 -190,190 0,105 85,191 190,191z"/>
    <path class="fil1" d="M2998 1797c105,0 191,-85 191,-190 0,-105 -86,-191 -191,-191 -105,0 -190,86 -190,191 0,105 85,190 190,190z"/>
    <path class="fil1" d="M3861 1798c105,0 191,-86 191,-191 0,-105 -86,-190 -191,-190 -105,0 -191,85 -191,190 0,105 86,191 191,191z"/>
    <path class="fil1" d="M4736 1798c106,0 191,-85 191,-190 0,-106 -85,-191 -191,-191 -105,0 -190,85 -190,191 0,105 85,190 190,190z"/>
   </g>
  </g>
 </g>
</svg>
