<?xml version="1.0" encoding="UTF-8"?>
<!DOCTYPE svg PUBLIC "-//W3C//DTD SVG 1.1//EN" "http://www.w3.org/Graphics/SVG/1.1/DTD/svg11.dtd">
<!-- Creator: CorelDRAW -->
<svg xmlns="http://www.w3.org/2000/svg" xml:space="preserve" width="98.6506mm" height="99.508mm" version="1.1" style="shape-rendering:geometricPrecision; text-rendering:geometricPrecision; image-rendering:optimizeQuality; fill-rule:evenodd; clip-rule:evenodd"
viewBox="0 0 9865 9951"
 xmlns:xlink="http://www.w3.org/1999/xlink">
 <defs>
  <style type="text/css">
   <![CDATA[
    .fil2 {fill:yellow;fill-rule:nonzero}
    .fil0 {fill:#FFCC00;fill-rule:nonzero}
    .fil3 {fill:black;fill-rule:nonzero}
    .fil1 {fill:white;fill-rule:nonzero}
   ]]>
  </style>
 </defs>
 <g id="Layer_x0020_1">
  <metadata id="CorelCorpID_0Corel-Layer"/>
  <g id="vc109427.ai">
   <g>
    <polygon class="fil0" points="9184,2764 7428,1180 5122,672 3228,957 1665,2305 581,3672 96,5642 376,7249 1487,8668 2742,9457 4198,9681 5938,9521 7084,9137 8533,8212 8033,7416 5444,8387 2878,7837 2030,6836 1707,5579 1662,4439 2092,3263 3155,2376 4911,1915 7022,2253 7920,3427 8243,4451 8063,5396 7416,6110 6964,6832 7302,7393 8539,6455 9582,4397 "/>
    <polygon class="fil1" points="3455,7162 3446,8146 4207,7405 "/>
    <polygon class="fil0" points="2474,5020 2324,6727 2789,7414 3902,7888 4305,7700 5290,6983 6011,7508 6848,7699 7674,7327 6944,6139 6361,5185 5475,5204 5014,6260 4255,6167 4004,5509 3876,5019 2811,4856 "/>
    <polygon class="fil0" points="3717,5363 2487,5223 3149,3992 4074,3182 5601,2810 6878,3181 6933,3814 6657,5113 6536,5646 5285,5861 5455,4679 5221,4125 4650,3994 4339,4304 4098,5010 3967,5320 "/>
    <polygon class="fil2" points="2563,2002 1199,3413 562,4890 613,5982 773,7040 1320,8066 1960,8592 2769,8997 3811,9254 5162,9302 6290,9099 7111,8746 5558,8972 4071,8993 3010,8731 1984,8137 1347,7331 937,6056 958,5000 1181,4110 2013,2918 3135,1772 "/>
    <polygon class="fil2" points="8170,2961 8480,3972 8529,4724 8330,5420 8005,6146 7500,6692 6876,6970 7864,6675 8664,5536 8839,4595 8712,3484 8397,2932 7816,2319 "/>
    <polygon class="fil2" points="6527,3667 6045,5959 5974,6444 6070,6726 6287,6916 6078,6868 5781,6500 5687,5858 5802,5003 6091,3648 "/>
    <polygon class="fil2" points="3564,3932 2914,5025 2752,5649 2758,6411 2957,6857 3285,7172 3829,7336 4462,7281 3910,7155 3215,6515 3237,5540 3485,4455 3967,3744 "/>
    <polygon class="fil3" points="3106,4320 2827,4871 2699,5302 2627,5871 2679,6401 2789,6762 3032,7124 3278,7267 3611,7362 4144,7426 4566,7340 4893,7127 5286,6708 5403,6658 5547,6700 5616,6821 5796,7122 6121,7253 6606,7316 7046,7196 7694,6921 7852,7235 7255,7541 6624,7656 6336,7657 6090,7601 5820,7521 5595,7373 5369,7187 5098,7451 4777,7637 4427,7740 3794,7740 3383,7646 2942,7478 2555,7198 2246,6657 2205,6082 2221,5548 2324,5015 2499,4585 2821,4054 3226,3542 3776,3063 4377,2576 4949,2380 5655,2397 6249,2571 6608,2720 6152,3249 6049,3447 5861,4104 5633,4052 5438,3730 5205,3571 5073,3521 4763,3451 4456,3448 4059,3549 3786,3650 3374,3988 "/>
    <polygon class="fil3" points="4579,4129 4456,4753 4391,5208 4408,5510 4497,5712 4673,5819 4799,5858 4910,5874 5055,5830 5204,5259 5596,5349 5416,6056 5302,6385 5039,6699 4767,6925 4517,7012 4260,7040 3923,6963 3691,6804 3501,6540 3411,6136 3377,5822 3410,5387 3511,5027 3671,4660 3933,4269 4216,4036 4407,3917 4555,3941 4583,4072 "/>
    <polygon class="fil3" points="4490,4310 4638,4209 4845,4227 5023,4287 5172,4389 5264,4534 5297,4724 5211,5146 5157,5508 5541,5547 5670,4982 5696,4700 5623,4434 5449,4144 5236,3943 4930,3853 4718,3815 4483,3876 4290,3967 4051,4171 "/>
    <polygon class="fil3" points="2799,9662 2112,9352 1403,8883 882,8351 435,7616 138,6983 0,6327 16,5333 113,4568 392,3682 769,3039 1324,2331 1956,1621 2757,969 3939,375 4816,144 5828,0 6697,102 7550,316 8221,613 8837,1108 9308,1695 9632,2211 9832,2890 9865,3713 9744,4539 9648,4959 9299,5647 8934,6197 8572,6056 8886,5188 8999,4523 8928,3864 8783,3197 8547,2760 8163,2298 7670,1850 7234,1578 6634,1345 5782,1169 4960,1155 4220,1245 3425,1448 2621,1821 1977,2288 1515,2797 1119,3272 847,3709 644,4344 515,4910 435,5765 517,6628 656,7110 1028,7838 1563,8392 2146,8822 2752,9152 3235,9349 3083,9765 "/>
    <polygon class="fil3" points="5924,3533 6702,3529 6107,6137 6094,6451 6233,6636 6479,6779 6755,6832 7067,6769 7466,6533 7801,6197 8051,5736 8205,5311 8281,5021 7939,4924 7855,5288 7762,5488 7617,5618 7457,5687 7245,5648 7179,5604 7136,5499 7175,5325 7730,2852 7487,2614 6713,2428 6518,2402 5955,2936 5880,3389 "/>
    <polygon class="fil3" points="3739,1922 2733,2422 2266,2786 1923,3197 1558,3747 1272,4449 1091,5118 1067,5813 1199,6620 1499,7283 1961,7907 2499,8327 3144,8656 3757,8825 4408,8916 5061,8873 6020,8746 6650,8468 7620,7960 7741,7892 7974,8300 7118,8901 6476,9148 5888,9349 5075,9451 4672,9485 4671,9887 5744,9782 6805,9495 7841,8883 8335,8490 9288,7544 8267,6428 7824,6855 7530,7009 7071,7336 6696,7634 6089,7774 5339,7823 4532,7783 3883,7645 2565,6941 2192,6012 2054,5568 2013,4906 2104,4255 2255,3589 2431,3198 2842,2783 3315,2478 4022,2236 4731,2072 5462,2066 6127,2179 6595,2315 7000,2560 7431,2649 7504,2455 7069,2173 6515,1951 5848,1760 5228,1705 4559,1735 4113,1796 "/>
    <polygon class="fil3" points="6929,2448 7574,3114 7764,3416 7895,3810 7968,4163 7965,4469 7930,4874 7925,5064 8236,5174 8345,4738 8384,4315 8347,3932 8204,3507 8014,3079 7684,2630 7434,2381 7066,2268 "/>
    <polygon class="fil1" points="3160,4781 2893,5471 2850,6052 2950,6536 3144,6870 3670,7200 3169,6585 3062,5740 3150,5089 "/>
    <polygon class="fil1" points="958,4209 736,5229 763,6117 887,6805 1116,7469 1440,8023 1894,8447 2361,8724 2829,8910 3274,9022 4180,9179 2925,8842 1912,8191 1292,7398 944,6288 809,5126 "/>
    <polygon class="fil1" points="6143,3820 5965,5081 5897,5906 6425,3724 "/>
    <polygon class="fil1" points="8459,3497 8588,4117 8607,4732 8493,5147 8170,6034 8453,5588 8690,4811 8711,4145 "/>
    <polygon class="fil3" points="4777,9463 4556,9484 4189,9482 3796,9437 3432,9381 3125,9311 3017,9743 3229,9801 3691,9897 4163,9951 4625,9931 5093,9885 5591,9783 "/>
    <polygon class="fil3" points="8764,5547 8531,6059 8391,6278 8203,6513 8505,6878 8782,6529 9197,5852 9524,5165 "/>
   </g>
  </g>
 </g>
</svg>
