<?xml version="1.0" encoding="UTF-8"?>
<!DOCTYPE svg PUBLIC "-//W3C//DTD SVG 1.1//EN" "http://www.w3.org/Graphics/SVG/1.1/DTD/svg11.dtd">
<!-- Creator: CorelDRAW -->
<svg xmlns="http://www.w3.org/2000/svg" xml:space="preserve" width="104.627mm" height="87.4522mm" version="1.1" style="shape-rendering:geometricPrecision; text-rendering:geometricPrecision; image-rendering:optimizeQuality; fill-rule:evenodd; clip-rule:evenodd"
viewBox="0 0 10463 8745"
 xmlns:xlink="http://www.w3.org/1999/xlink">
 <defs>
  <style type="text/css">
   <![CDATA[
    .fil3 {fill:#FFF3E6;fill-rule:nonzero}
    .fil12 {fill:#C74331;fill-rule:nonzero}
    .fil4 {fill:#CC3300;fill-rule:nonzero}
    .fil1 {fill:#F6F3DC;fill-rule:nonzero}
    .fil5 {fill:#B1C77E;fill-rule:nonzero}
    .fil7 {fill:#838649;fill-rule:nonzero}
    .fil0 {fill:#C2C2BB;fill-rule:nonzero}
    .fil6 {fill:#B2B2B2;fill-rule:nonzero}
    .fil9 {fill:#CCCCCC;fill-rule:nonzero}
    .fil2 {fill:#E5E5E5;fill-rule:nonzero}
    .fil8 {fill:#FCFCFC;fill-rule:nonzero}
    .fil13 {fill:white;fill-rule:nonzero}
    .fil10 {fill:#C74331;fill-rule:nonzero}
    .fil11 {fill:#C74331;fill-rule:nonzero}
   ]]>
  </style>
 </defs>
 <g id="Layer_x0020_1">
  <metadata id="CorelCorpID_0Corel-Layer"/>
  <g id="vc110156.ai">
   <g>
    <polygon class="fil0" points="522,7058 522,4384 456,4384 456,7091 456,7124 489,7124 6410,7125 6410,7059 "/>
    <path class="fil1" d="M456 4921l3845 0c252,0 456,-204 456,-456l0 -3274c0,-252 -204,-456 -456,-456l-3845 0c-251,0 -456,204 -456,456l0 3274c0,252 205,456 456,456z"/>
    <path class="fil1" d="M7340 7512l1937 0c252,0 457,-205 457,-457l0 -5359c0,-251 -205,-456 -457,-456l-1937 0c-252,0 -456,205 -456,456l0 5359c0,252 204,457 456,457z"/>
    <path class="fil1" d="M6965 7398l2378 0c251,0 456,-205 456,-456l0 -3373c0,-251 -205,-456 -456,-456l-2378 0c-252,0 -457,205 -457,456l0 3373c0,251 205,456 457,456z"/>
    <polygon class="fil2" points="874,6709 8905,6676 8905,719 876,725 "/>
    <path class="fil3" d="M4056 2713l-728 1177 -362 -281 864 -1234c-20,-26 -40,-51 -60,-76l-1388 440 -109 -395 1241 -330c-452,-450 -976,-709 -1405,-706 -168,1 -321,43 -450,131 -535,365 -428,1384 239,2272 473,367 945,742 1424,1118 234,78 711,129 987,-425 277,-554 -114,-1548 -253,-1691z"/>
    <polygon class="fil0" points="9294,4487 9291,6981 7837,6985 7837,7052 9325,7047 9357,7047 9357,7014 9360,4487 "/>
    <path class="fil4" d="M4371 2214c159,0 287,-128 287,-286 0,-159 -128,-287 -287,-287 -158,0 -287,128 -287,287 0,158 129,286 287,286z"/>
    <polygon class="fil4" points="2405,2429 4228,1897 4294,2053 2457,2606 "/>
    <polygon class="fil4" points="4250,1913 3107,3585 3293,3730 4323,2112 "/>
    <path class="fil5" d="M1918 6527l236 178c-220,1 -467,2 -685,3l449 -181z"/>
    <path class="fil5" d="M1121 5976c30,-13 63,-28 99,-42l610 507 -638 256c-180,0 -301,1 -301,1l230 -722z"/>
    <path class="fil5" d="M1975 5604l564 460 2 -141 -451 -371 658 -310 105 1450c0,0 -249,0 -495,1l-308 -228 489 -206 4 -121 -590 252 -613 -507 635 -279z"/>
    <polygon class="fil5" points="1391,5062 1888,5528 1159,5850 "/>
    <path class="fil5" d="M4880 1706c0,0 -326,-617 -1043,2l16 -1222c0,0 345,-515 1361,-485 1016,30 1790,542 2460,408 672,-134 1374,-494 2114,-268l-39 1560c0,0 -409,-129 -855,-62 -448,67 -603,339 -1387,268 -784,-71 -1008,-424 -1632,-424 -624,0 -995,223 -995,223z"/>
    <polygon class="fil5" points="8393,3287 5043,3116 4589,5814 7916,6387 "/>
    <polygon class="fil5" points="4504,5976 2442,7271 5791,8157 7880,6504 7599,6463 "/>
    <polygon class="fil6" points="2405,7402 5808,8343 8016,6521 8016,7018 5849,8709 5806,8745 2379,7788 "/>
    <polygon class="fil3" points="5236,3418 4877,5571 7645,5995 7292,3535 "/>
    <polygon class="fil7" points="3473,6877 3069,7116 5640,7775 6013,7481 "/>
    <polygon class="fil7" points="5753,7273 6153,7362 6452,7153 6107,7040 "/>
    <polygon class="fil7" points="6240,6921 6586,7012 6909,6782 6569,6701 "/>
    <polygon class="fil7" points="5896,6980 5581,7197 5226,7133 5589,6905 "/>
    <polygon class="fil7" points="5726,6782 6046,6862 6332,6634 6015,6567 "/>
    <polygon class="fil7" points="5350,6853 5034,7070 4680,7006 5043,6778 "/>
    <polygon class="fil7" points="4506,6486 4855,6562 5115,6384 4814,6287 "/>
    <polygon class="fil7" points="5787,6520 5475,6703 5121,6641 5454,6438 "/>
    <polygon class="fil6" points="8512,3348 8024,6424 8350,6424 8806,3533 "/>
    <polygon class="fil8" points="880,4921 872,3643 1206,3643 1645,4229 1434,4930 "/>
    <path class="fil7" d="M2004 1316c-3,58 -24,127 -96,192 -143,130 -252,185 -279,321 -25,137 79,215 105,436 26,221 -46,384 52,534 98,149 351,130 553,442 201,312 150,475 247,605 98,130 445,107 634,328 189,222 311,290 441,420 -47,46 -83,240 -120,258 -757,-175 -1214,-557 -1648,-1135 -666,-888 -790,-1908 -240,-2274 108,-73 214,-115 351,-127z"/>
    <path class="fil9" d="M4951 1974c0,0 636,-349 1240,-201 603,148 709,339 1355,381 646,43 985,-275 1483,-296 497,-22 751,63 751,63l-10 1695c0,0 -318,-127 -720,-53 -80,15 -148,34 -213,58 13,-98 25,-182 25,-182l-425 -324 -3565 -179c0,0 -54,308 -91,517 -144,42 -232,79 -232,79 0,0 -21,-234 -106,-509 -85,-275 -212,-508 -212,-508l157 -183c0,0 201,11 358,-67 156,-78 205,-291 205,-291z"/>
    <path class="fil4" d="M1205 2097c0,0 -67,827 637,1811 704,984 1856,1118 1856,1118 0,0 -1241,246 -2102,-638 -860,-882 -391,-2291 -391,-2291z"/>
    <path class="fil5" d="M1530 4562c107,121 269,253 509,375 232,115 444,187 619,233 -44,21 -655,306 -655,306l-575 -545c0,0 49,-176 102,-369z"/>
    <path class="fil10" d="M5171 1347l52 0c19,0 34,-14 34,-33l0 -307c0,-19 -15,-33 -34,-33l-52 0c-18,0 -34,14 -34,33l0 307c0,19 16,33 34,33z"/>
    <path class="fil11" d="M5171 923l52 0c19,0 34,-15 34,-33l0 -308c0,-18 -15,-33 -34,-33l-52 0c-18,0 -34,15 -34,33l0 308c0,18 16,33 34,33z"/>
    <path class="fil12" d="M4400 1345l50 0c19,0 35,-14 35,-33l0 -307c0,-18 -16,-34 -35,-34l-50 0c-19,0 -35,16 -35,34l0 307c0,19 16,33 35,33z"/>
    <path class="fil12" d="M4400 940l50 0c19,0 35,-15 35,-33l0 -308c0,-18 -16,-33 -35,-33l-50 0c-19,0 -35,15 -35,33l0 308c0,18 16,33 35,33z"/>
    <path class="fil12" d="M4531 674l182 0c16,0 29,-12 29,-27l0 -60c0,-15 -13,-27 -29,-27l-182 0c-16,0 -28,12 -28,27l0 60c0,15 12,27 28,27z"/>
    <path class="fil12" d="M4541 1347l172 0c16,0 29,-12 29,-27l0 -61c0,-16 -13,-27 -29,-27l-172 0c-16,0 -29,11 -29,27l0 61c0,15 13,27 29,27z"/>
    <path class="fil12" d="M4806 1343l50 0c19,0 34,-15 34,-33l0 -308c0,-19 -15,-33 -34,-33l-50 0c-20,0 -35,14 -35,33l0 308c0,18 15,33 35,33z"/>
    <path class="fil12" d="M4806 941l50 0c19,0 34,-14 34,-33l0 -308c0,-18 -15,-33 -34,-33l-50 0c-20,0 -35,15 -35,33l0 308c0,19 15,33 35,33z"/>
    <path class="fil12" d="M5566 1347l-42 0c-15,0 -27,-12 -27,-27l0 -254c0,-15 12,-27 27,-27l42 0c16,0 29,12 29,27l0 254c0,15 -13,27 -29,27z"/>
    <path class="fil12" d="M5566 998l-42 0c-15,0 -27,-12 -27,-28l0 -254c0,-14 12,-27 27,-27l42 0c16,0 29,13 29,27l0 254c0,16 -13,28 -29,28z"/>
    <path class="fil12" d="M6203 1346l-42 0c-16,0 -29,-12 -29,-27l0 -254c0,-15 13,-27 29,-27l42 0c15,0 28,12 28,27l0 254c0,15 -13,27 -28,27z"/>
    <path class="fil12" d="M6203 1012l-42 0c-16,0 -29,-13 -29,-27l0 -255c0,-15 13,-26 29,-26l42 0c15,0 28,11 28,26l0 255c0,14 -13,27 -28,27z"/>
    <path class="fil12" d="M6095 793l-150 0c-14,0 -24,-10 -24,-23l0 -49c0,-13 10,-23 24,-23l150 0c12,0 23,10 23,23l0 49c0,13 -11,23 -23,23z"/>
    <path class="fil12" d="M6087 1347l-142 0c-14,0 -24,-9 -24,-22l0 -50c0,-13 10,-23 24,-23l142 0c13,0 23,10 23,23l0 50c0,13 -10,22 -23,22z"/>
    <path class="fil12" d="M5868 1344l-41 0c-16,0 -29,-12 -29,-28l0 -254c0,-14 13,-27 29,-27l41 0c16,0 29,13 29,27l0 254c0,16 -13,28 -29,28z"/>
    <path class="fil12" d="M5868 1013l-41 0c-16,0 -29,-12 -29,-27l0 -254c0,-15 13,-28 29,-28l41 0c16,0 29,13 29,28l0 254c0,15 -13,27 -29,27z"/>
    <path class="fil12" d="M7267 1347l51 0c19,0 34,-14 34,-33l0 -307c0,-19 -15,-33 -34,-33l-51 0c-20,0 -35,14 -35,33l0 307c0,19 15,33 35,33z"/>
    <path class="fil12" d="M7267 923l51 0c19,0 34,-15 34,-33l0 -308c0,-18 -15,-33 -34,-33l-51 0c-20,0 -35,15 -35,33l0 308c0,18 15,33 35,33z"/>
    <path class="fil12" d="M6495 1345l50 0c19,0 35,-14 35,-33l0 -307c0,-18 -16,-34 -35,-34l-50 0c-19,0 -35,16 -35,34l0 307c0,19 16,33 35,33z"/>
    <path class="fil12" d="M6495 940l50 0c19,0 35,-15 35,-33l0 -308c0,-18 -16,-33 -35,-33l-50 0c-19,0 -35,15 -35,33l0 308c0,18 16,33 35,33z"/>
    <path class="fil12" d="M6626 674l182 0c16,0 29,-12 29,-27l0 -60c0,-15 -13,-27 -29,-27l-182 0c-16,0 -28,12 -28,27l0 60c0,15 12,27 28,27z"/>
    <path class="fil12" d="M6636 1347l172 0c16,0 29,-12 29,-27l0 -61c0,-16 -13,-27 -29,-27l-172 0c-16,0 -28,11 -28,27l0 61c0,15 12,27 28,27z"/>
    <path class="fil12" d="M6901 1343l50 0c19,0 35,-15 35,-33l0 -308c0,-19 -16,-33 -35,-33l-50 0c-19,0 -35,14 -35,33l0 308c0,18 16,33 35,33z"/>
    <path class="fil12" d="M6901 941l50 0c19,0 35,-14 35,-33l0 -308c0,-18 -16,-33 -35,-33l-50 0c-19,0 -35,15 -35,33l0 308c0,19 16,33 35,33z"/>
    <path class="fil12" d="M8453 1347l51 0c19,0 34,-14 34,-33l0 -307c0,-19 -15,-33 -34,-33l-51 0c-19,0 -35,14 -35,33l0 307c0,19 16,33 35,33z"/>
    <path class="fil12" d="M8453 923l51 0c19,0 34,-15 34,-33l0 -308c0,-18 -15,-33 -34,-33l-51 0c-19,0 -35,15 -35,33l0 308c0,18 16,33 35,33z"/>
    <path class="fil12" d="M7681 1345l50 0c20,0 35,-14 35,-33l0 -307c0,-18 -15,-34 -35,-34l-50 0c-19,0 -34,16 -34,34l0 307c0,19 15,33 34,33z"/>
    <path class="fil12" d="M7681 940l50 0c20,0 35,-15 35,-33l0 -308c0,-18 -15,-33 -35,-33l-50 0c-19,0 -34,15 -34,33l0 308c0,18 15,33 34,33z"/>
    <path class="fil12" d="M7812 674l183 0c15,0 28,-12 28,-27l0 -60c0,-15 -13,-27 -28,-27l-183 0c-16,0 -28,12 -28,27l0 60c0,15 12,27 28,27z"/>
    <path class="fil12" d="M7822 1347l173 0c15,0 28,-12 28,-27l0 -61c0,-16 -13,-27 -28,-27l-173 0c-16,0 -28,11 -28,27l0 61c0,15 12,27 28,27z"/>
    <path class="fil12" d="M8087 1343l50 0c19,0 34,-15 34,-33l0 -308c0,-19 -15,-33 -34,-33l-50 0c-19,0 -34,14 -34,33l0 308c0,18 15,33 34,33z"/>
    <path class="fil12" d="M8087 941l50 0c19,0 34,-14 34,-33l0 -308c0,-18 -15,-33 -34,-33l-50 0c-19,0 -34,15 -34,33l0 308c0,19 15,33 34,33z"/>
    <path class="fil13" d="M8832 1347l-58 0c-22,0 -39,-17 -39,-37l0 -353c0,-21 17,-38 39,-38l58 0c22,0 40,17 40,38l0 353c0,20 -18,37 -40,37z"/>
    <path class="fil13" d="M8832 861l-58 0c-22,0 -39,-17 -39,-38l0 -353c0,-20 17,-37 39,-37l58 0c22,0 40,17 40,37l0 353c0,21 -18,38 -40,38z"/>
    <path class="fil13" d="M9716 1345l-57 0c-22,0 -40,-17 -40,-37l0 -353c0,-21 18,-38 40,-38l57 0c22,0 40,17 40,38l0 353c0,20 -18,37 -40,37z"/>
    <path class="fil13" d="M9716 881l-57 0c-22,0 -40,-17 -40,-38l0 -352c0,-21 18,-38 40,-38l57 0c22,0 40,17 40,38l0 352c0,21 -18,38 -40,38z"/>
    <path class="fil13" d="M9566 577l-209 0c-18,0 -33,-14 -33,-31l0 -69c0,-17 15,-31 33,-31l209 0c18,0 32,14 32,31l0 69c0,17 -14,31 -32,31z"/>
    <path class="fil13" d="M9555 1347l-198 0c-18,0 -33,-13 -33,-31l0 -70c0,-17 15,-31 33,-31l198 0c18,0 33,14 33,31l0 70c0,18 -15,31 -33,31z"/>
    <path class="fil13" d="M9252 1342l-58 0c-22,0 -40,-17 -40,-38l0 -352c0,-22 18,-38 40,-38l58 0c21,0 39,16 39,38l0 352c0,21 -18,38 -39,38z"/>
    <path class="fil13" d="M9252 882l-58 0c-22,0 -40,-16 -40,-38l0 -352c0,-21 18,-38 40,-38l58 0c21,0 39,17 39,38l0 352c0,22 -18,38 -39,38z"/>
    <path class="fil12" d="M4069 1347l50 0c19,0 35,-14 35,-33l0 -307c0,-19 -16,-33 -35,-33l-50 0c-19,0 -35,14 -35,33l0 307c0,19 16,33 35,33z"/>
    <path class="fil12" d="M4064 916l51 0c20,0 35,-15 35,-33l0 -308c0,-18 -15,-34 -35,-34l-51 0c-18,0 -34,16 -34,34l0 308c0,18 16,33 34,33z"/>
    <path class="fil12" d="M9972 1313l50 0c19,0 35,-15 35,-33l0 -308c0,-18 -16,-33 -35,-33l-50 0c-19,0 -35,15 -35,33l0 308c0,18 16,33 35,33z"/>
    <path class="fil12" d="M9972 908l50 0c19,0 35,-15 35,-33l0 -309c0,-17 -16,-33 -35,-33l-50 0c-19,0 -35,16 -35,33l0 309c0,18 16,33 35,33z"/>
    <path class="fil12" d="M10102 642l183 0c16,0 29,-12 29,-27l0 -61c0,-15 -13,-26 -29,-26l-183 0c-15,0 -28,11 -28,26l0 61c0,15 13,27 28,27z"/>
    <path class="fil12" d="M10113 1315l172 0c16,0 29,-13 29,-28l0 -61c0,-15 -13,-27 -29,-27l-172 0c-16,0 -29,12 -29,27l0 61c0,15 13,28 29,28z"/>
    <path class="fil12" d="M10377 1310l51 0c19,0 35,-15 35,-33l0 -308c0,-18 -16,-33 -35,-33l-51 0c-19,0 -34,15 -34,33l0 308c0,18 15,33 34,33z"/>
    <path class="fil12" d="M10377 909l51 0c19,0 35,-15 35,-34l0 -307c0,-19 -16,-33 -35,-33l-51 0c-19,0 -34,14 -34,33l0 307c0,19 15,34 34,34z"/>
    <path class="fil12" d="M983 4570l46 0c18,0 32,-13 32,-30l0 -281c0,-17 -14,-31 -32,-31l-46 0c-17,0 -31,14 -31,31l0 281c0,17 14,30 31,30z"/>
    <path class="fil12" d="M983 4182l46 0c18,0 32,-13 32,-30l0 -282c0,-16 -14,-29 -32,-29l-46 0c-17,0 -31,13 -31,29l0 282c0,17 14,30 31,30z"/>
    <path class="fil12" d="M278 4568l46 0c17,0 32,-13 32,-29l0 -282c0,-17 -15,-30 -32,-30l-46 0c-18,0 -32,13 -32,30l0 282c0,16 14,29 32,29z"/>
    <path class="fil12" d="M278 4198l46 0c17,0 32,-13 32,-30l0 -282c0,-17 -15,-30 -32,-30l-46 0c-18,0 -32,13 -32,30l0 282c0,17 14,30 32,30z"/>
    <path class="fil12" d="M397 3955l167 0c15,0 27,-11 27,-24l0 -56c0,-13 -12,-25 -27,-25l-167 0c-14,0 -26,12 -26,25l0 56c0,13 12,24 26,24z"/>
    <path class="fil12" d="M406 4570l158 0c15,0 27,-11 27,-25l0 -56c0,-13 -12,-24 -27,-24l-158 0c-14,0 -26,11 -26,24l0 56c0,14 12,25 26,25z"/>
    <path class="fil12" d="M648 4566l46 0c18,0 32,-14 32,-30l0 -282c0,-17 -14,-30 -32,-30l-46 0c-17,0 -31,13 -31,30l0 282c0,16 14,30 31,30z"/>
    <path class="fil12" d="M648 4199l46 0c18,0 32,-14 32,-30l0 -282c0,-16 -14,-30 -32,-30l-46 0c-17,0 -31,14 -31,30l0 282c0,16 14,30 31,30z"/>
    <polygon class="fil6" points="2892,5251 3023,6701 3332,6734 3169,5267 "/>
    <path class="fil6" d="M1019 2856c0,0 -546,-1490 594,-1929 1140,-441 2191,781 2191,781l-212 212c0,0 -961,-993 -1783,-700 -823,293 -790,1636 -790,1636z"/>
    <path class="fil7" d="M7355 3537c0,0 -260,187 -260,431 0,245 227,375 276,726 49,350 -293,455 -415,724 -122,269 41,489 41,489l684 106 399 -2460 -725 -16z"/>
    <polygon class="fil4" points="5015,5241 5714,4514 6001,4815 6664,4204 7026,4664 7482,4121 7320,3903 7893,3774 7746,4461 7591,4253 7031,4976 6658,4514 5974,5133 5709,4814 5067,5447 "/>
   </g>
  </g>
 </g>
</svg>
