<?xml version="1.0" encoding="UTF-8"?>
<!DOCTYPE svg PUBLIC "-//W3C//DTD SVG 1.1//EN" "http://www.w3.org/Graphics/SVG/1.1/DTD/svg11.dtd">
<!-- Creator: CorelDRAW -->
<svg xmlns="http://www.w3.org/2000/svg" xml:space="preserve" width="108.578mm" height="78.0568mm" version="1.1" style="shape-rendering:geometricPrecision; text-rendering:geometricPrecision; image-rendering:optimizeQuality; fill-rule:evenodd; clip-rule:evenodd"
viewBox="0 0 10858 7806"
 xmlns:xlink="http://www.w3.org/1999/xlink">
 <defs>
  <style type="text/css">
   <![CDATA[
    .fil4 {fill:#FFF3E6;fill-rule:nonzero}
    .fil6 {fill:#CC3300;fill-rule:nonzero}
    .fil0 {fill:#F6F3DC;fill-rule:nonzero}
    .fil3 {fill:#B1C77E;fill-rule:nonzero}
    .fil5 {fill:#838649;fill-rule:nonzero}
    .fil1 {fill:#C2C2BB;fill-rule:nonzero}
    .fil9 {fill:#7F7F7F;fill-rule:nonzero}
    .fil10 {fill:#999999;fill-rule:nonzero}
    .fil7 {fill:#B2B2B2;fill-rule:nonzero}
    .fil8 {fill:#CCCCCC;fill-rule:nonzero}
    .fil2 {fill:#E5E5E5;fill-rule:nonzero}
   ]]>
  </style>
 </defs>
 <g id="Layer_x0020_1">
  <metadata id="CorelCorpID_0Corel-Layer"/>
  <g id="vc110158.ai">
   <g>
    <path class="fil0" d="M3504 1130c0,7 233,-86 537,-70 304,16 600,218 919,218 319,0 599,-141 981,-218 381,-78 817,62 817,62 0,0 -241,171 -351,514 -108,343 -2997,280 -2997,280l94 -786z"/>
    <path class="fil0" d="M1651 982c0,0 -195,226 -312,202 -116,-23 -576,-171 -841,296 -264,467 -194,748 -194,763 0,16 -304,3940 -304,3940l1386 -16 -93 -1075 451 -1074 -93 -3036z"/>
    <path class="fil0" d="M4262 7806l4873 0c198,0 358,-161 358,-358l0 -1838c0,-197 -160,-358 -358,-358l-4873 0c-198,0 -358,161 -358,358l0 1838c0,197 160,358 358,358z"/>
    <polygon class="fil1" points="7088,752 1646,752 1614,752 1614,783 1614,1593 1678,1593 1678,815 7088,815 "/>
    <polygon class="fil1" points="1420,7276 1420,5921 1357,5921 1357,7307 1357,7339 1389,7339 4044,7346 4044,7283 "/>
    <polygon class="fil2" points="1616,7095 9056,7064 9056,1600 1619,1606 "/>
    <polygon class="fil3" points="3945,5900 7321,5910 7622,6813 3839,6796 "/>
    <polygon class="fil3" points="3630,2202 3630,4920 7057,4918 7616,4358 7618,2221 "/>
    <polygon class="fil4" points="3983,2554 3963,4618 7225,4618 7225,2544 "/>
    <path class="fil5" d="M7225 2544l-528 0c0,0 -102,168 -37,374 65,205 196,346 140,551 -56,206 -196,328 -187,543 10,214 112,439 112,505 0,65 4,102 4,102l496 -1 0 -2074z"/>
    <polygon class="fil6" points="4908,5039 6135,5039 6135,5794 4918,5794 "/>
    <polygon class="fil6" points="4567,6432 4546,6644 6996,6644 6902,6420 "/>
    <path class="fil5" d="M3945 5900l-43 385c217,56 500,8 613,-20 113,-27 281,-121 434,-140 154,-18 272,66 521,98 249,33 294,-112 487,-135 194,-24 343,79 580,107 237,28 276,-107 426,-121 200,39 254,146 457,117l-99 -281 -3376 -10z"/>
    <path class="fil6" d="M4467 3322c-138,-30 -226,-168 -195,-306 31,-138 168,-225 306,-194 138,30 225,167 195,306 -31,138 -168,225 -306,194z"/>
    <path class="fil6" d="M5477 4465c-138,-31 -225,-168 -195,-306 31,-139 168,-225 306,-195 138,31 225,168 195,306 -31,138 -168,226 -306,195z"/>
    <path class="fil6" d="M6530 3319c-138,-31 -226,-168 -194,-306 31,-138 168,-225 306,-194 138,31 225,168 194,306 -31,138 -168,225 -306,194z"/>
    <polygon class="fil5" points="4780,3338 4627,3458 5180,4061 5320,3921 "/>
    <polygon class="fil5" points="4884,2901 4883,3102 6191,3106 6190,2895 "/>
    <polygon class="fil5" points="6320,3330 5730,3917 5862,4084 6495,3450 "/>
    <polygon class="fil6" points="3818,6915 7655,6907 7661,7345 3831,7343 "/>
    <polygon class="fil3" points="3516,4571 3267,4661 3216,4419 2753,4925 3341,5315 3357,5049 3823,4979 3844,5924 398,5922 577,2566 1168,2551 1192,4003 3520,3987 "/>
    <path class="fil5" d="M569 2551l312 -8c0,0 43,294 16,567 -27,272 -168,512 -187,743 -18,231 142,425 123,854 -18,430 -182,499 -195,721 -14,222 156,498 156,498l-404 -20 179 -3355z"/>
    <path class="fil7" d="M3529 2709c0,132 -1,270 -1,409 -103,12 -252,-43 -329,-39 -88,4 -114,85 -294,120 -178,34 -273,-55 -380,-62 -106,-8 -202,146 -389,92 -186,-54 -175,-235 -75,-304 98,-70 327,38 403,4 76,-35 172,-217 377,-205 206,12 266,119 347,100 67,-16 188,-158 341,-115z"/>
    <path class="fil3" d="M9575 5930c121,0 221,-98 221,-220 0,-122 -100,-221 -221,-221 -122,0 -220,99 -220,221 0,122 98,220 220,220z"/>
    <path class="fil3" d="M10366 5921c121,0 220,-98 220,-220 0,-121 -99,-220 -220,-220 -122,0 -221,99 -221,220 0,122 99,220 221,220z"/>
    <path class="fil3" d="M8361 3701l2495 0 0 2001 -195 -1c0,-163 -133,-295 -295,-295 -164,0 -285,131 -285,294l-211 2c-4,-159 -135,-287 -295,-287 -160,0 -290,128 -295,287 -503,0 -932,0 -932,0l13 -2001z"/>
    <path class="fil5" d="M8352 5293c73,-36 162,-68 252,-71 230,-9 328,115 541,123 213,8 443,-156 657,-189 213,-32 336,140 566,156 198,14 250,-142 490,-191l0 582 -196 0c0,-163 -132,-296 -295,-296 -163,0 -285,131 -285,295l-210 1c-4,-159 -135,-287 -295,-287 -160,0 -291,128 -295,287l-933 0 3 -410z"/>
    <path class="fil5" d="M9575 5814c58,0 104,-46 104,-104 0,-58 -46,-104 -104,-104 -58,0 -104,46 -104,104 0,58 46,104 104,104z"/>
    <path class="fil5" d="M10366 5805c56,0 103,-46 103,-104 0,-57 -47,-104 -103,-104 -58,0 -105,47 -105,104 0,58 47,104 105,104z"/>
    <path class="fil6" d="M6299 2562c0,0 82,-798 414,-1230 331,-432 845,-510 845,-510l-24 -225 461 177 -350 438 -20 -202c0,0 -525,155 -701,707 -175,551 -103,838 -103,838l-522 7z"/>
    <path class="fil7" d="M3266 949c217,69 307,220 316,375 0,0 14,261 -117,356 -131,96 -369,60 -369,60 -106,-20 -206,-52 -267,-56 -140,-8 -262,193 -463,336 -201,144 -388,-92 -599,-128 -209,-37 -224,77 -410,212 -184,135 -354,297 -557,70 -204,-226 103,-694 266,-705 163,-10 366,83 551,-32 185,-116 261,-316 478,-355 217,-40 342,83 537,90 193,9 308,-325 634,-223z"/>
    <path class="fil8" d="M3267 940c130,41 212,122 260,206 -36,54 -59,155 -160,214 -102,60 -182,40 -296,31 -119,-6 -210,-45 -334,-43 -190,1 -351,226 -490,293 -139,68 -648,-14 -853,30 -206,44 -301,264 -464,327 -68,26 -138,36 -196,38 -34,-238 195,-564 329,-573 187,-10 367,84 552,-32 186,-115 263,-310 480,-349 217,-40 342,83 537,90 193,9 308,-334 635,-232z"/>
    <path class="fil7" d="M7789 2645c0,-299 0,-579 0,-799 108,10 226,16 356,15 632,-5 1011,-166 1237,-341 0,187 0,647 0,874 -223,105 -608,257 -1216,261 -139,2 -264,-2 -377,-10z"/>
    <path class="fil7" d="M6764 1153c0,0 -81,-86 -50,-339 50,-589 1061,-798 1514,-813 454,-16 1146,195 1312,543l-1286 208 1061 652c0,0 -476,421 -1530,309l2 -335 -554 -5c0,0 171,-220 330,-250l-12 265 594 -646 -671 -248 5 271c0,0 -319,50 -493,184 -174,134 -222,204 -222,204z"/>
    <path class="fil9" d="M9678 670c0,0 280,382 -171,654l-903 -490 1074 -164z"/>
    <path class="fil10" d="M7789 2647c0,-125 0,-247 0,-363 8,0 17,-1 25,-2 217,-19 385,107 534,116 149,10 213,-131 465,-198 201,-54 469,-1 570,23 0,65 0,124 0,173 -223,105 -608,257 -1216,262 -139,0 -265,-4 -378,-11z"/>
    <path class="fil7" d="M7746 5936c121,0 220,-98 220,-220 0,-122 -99,-220 -220,-220 -122,0 -221,98 -221,220 0,122 99,220 221,220z"/>
    <path class="fil10" d="M7239 4878l416 -445 593 1 1 1282 -207 0c0,-163 -133,-296 -296,-296 -163,0 -296,133 -296,296l-211 0 0 -838z"/>
    <polygon class="fil4" points="7688,4584 7688,4939 7368,4939 "/>
    <polygon class="fil4" points="7801,4581 7801,4938 8148,4938 8148,4579 "/>
    <path class="fil10" d="M7746 5820c57,0 104,-47 104,-104 0,-57 -47,-104 -104,-104 -58,0 -104,47 -104,104 0,57 46,104 104,104z"/>
    <path class="fil9" d="M9499 1434l0 926c0,0 187,-31 351,-342l0 -966c-164,389 -351,382 -351,382z"/>
    <path class="fil6" d="M3173 4594l-276 313 377 237 -22 -179c0,0 793,35 1316,-604l-296 -332c0,0 -386,574 -1072,713l-27 -148z"/>
    <polygon class="fil4" points="1194,4655 1486,4655 1486,4363 1194,4363 "/>
    <polygon class="fil4" points="1679,4651 1971,4651 1971,4359 1679,4359 "/>
    <polygon class="fil4" points="2164,4648 2456,4648 2456,4356 2164,4356 "/>
    <polygon class="fil4" points="2649,4645 2941,4645 2941,4352 2649,4352 "/>
    <polygon class="fil4" points="1198,5076 1490,5076 1490,4784 1198,4784 "/>
    <polygon class="fil4" points="1683,5072 1976,5072 1976,4780 1683,4780 "/>
    <polygon class="fil4" points="2169,5069 2460,5069 2460,4777 2169,4777 "/>
    <polygon class="fil4" points="2654,5065 2941,5067 2938,5049 2757,4923 2895,4773 2654,4774 "/>
    <polygon class="fil4" points="1203,5496 1495,5496 1495,5205 1203,5205 "/>
    <polygon class="fil4" points="1688,5493 1980,5493 1980,5201 1688,5201 "/>
    <polygon class="fil4" points="2173,5490 2465,5490 2465,5198 2173,5198 "/>
    <polygon class="fil4" points="2658,5487 2950,5487 2950,5194 2658,5194 "/>
   </g>
  </g>
 </g>
</svg>
