<?xml version="1.0" encoding="UTF-8"?>
<!DOCTYPE svg PUBLIC "-//W3C//DTD SVG 1.1//EN" "http://www.w3.org/Graphics/SVG/1.1/DTD/svg11.dtd">
<!-- Creator: CorelDRAW -->
<svg xmlns="http://www.w3.org/2000/svg" xml:space="preserve" width="110.017mm" height="78.941mm" version="1.1" style="shape-rendering:geometricPrecision; text-rendering:geometricPrecision; image-rendering:optimizeQuality; fill-rule:evenodd; clip-rule:evenodd"
viewBox="0 0 11002 7894"
 xmlns:xlink="http://www.w3.org/1999/xlink">
 <defs>
  <style type="text/css">
   <![CDATA[
    .fil7 {fill:#FFF3E6;fill-rule:nonzero}
    .fil8 {fill:#CC3300;fill-rule:nonzero}
    .fil1 {fill:#F6F3DC;fill-rule:nonzero}
    .fil5 {fill:#B1C77E;fill-rule:nonzero}
    .fil9 {fill:#838649;fill-rule:nonzero}
    .fil0 {fill:#C2C2BB;fill-rule:nonzero}
    .fil4 {fill:#999999;fill-rule:nonzero}
    .fil3 {fill:#B2B2B2;fill-rule:nonzero}
    .fil2 {fill:#E5E5E5;fill-rule:nonzero}
    .fil6 {fill:#FCFCFC;fill-rule:nonzero}
   ]]>
  </style>
 </defs>
 <g id="Layer_x0020_1">
  <metadata id="CorelCorpID_0Corel-Layer"/>
  <g id="vc110157.ai">
   <g>
    <polygon class="fil0" points="10305,797 7598,782 7597,846 10273,861 10273,1831 10337,1831 10337,829 10337,797 "/>
    <path class="fil1" d="M7294 5422l3035 0c241,0 437,-197 437,-439l0 -3223c0,-241 -196,-438 -437,-438l-3035 0c-242,0 -439,197 -439,438l0 3223c0,242 197,439 439,439z"/>
    <polygon class="fil1" points="8623,5610 9922,5625 11002,6846 11002,7894 8372,7878 "/>
    <path class="fil1" d="M1207 3755l2151 0c241,0 438,-196 438,-438l0 -1557c0,-241 -197,-438 -438,-438l-2151 0c-243,0 -439,197 -439,438l0 1557c0,242 196,438 439,438z"/>
    <polygon class="fil2" points="1178,7245 8655,7213 8655,1317 1181,1323 "/>
    <polygon class="fil0" points="768,7581 768,6673 705,6673 705,7613 705,7644 737,7644 5572,7644 5572,7581 "/>
    <path class="fil1" d="M3513 1213l220 -204 774 -188 767 -821 70 532c0,0 666,-313 1597,-32 931,282 1197,806 1197,806l649 16 313 399 -1494 -15 -431 -447 -2049 -172 -837 626 -776 -500z"/>
    <polygon class="fil3" points="5873,7069 5584,7069 5540,7874 8603,7870 8603,7534 5834,7542 "/>
    <path class="fil3" d="M810 6717c309,0 561,-251 561,-561 0,-309 -252,-560 -561,-560 -309,0 -560,251 -560,560 0,310 251,561 560,561z"/>
    <polygon class="fil3" points="7993,1635 8165,1862 10020,1894 9957,4780 8415,4792 8415,4995 10348,5000 10333,1627 "/>
    <polygon class="fil4" points="6573,1768 6354,1580 5298,1588 5290,5007 7027,5007 7027,4803 5665,4710 5837,2081 "/>
    <polygon class="fil5" points="3338,1252 4897,1281 5062,571 3357,876 "/>
    <path class="fil6" d="M1178 1306l0 2442 1988 0c0,0 548,-16 633,-611l-31 -1838 -2590 7z"/>
    <path class="fil5" d="M5587 1773l1034 5c87,135 242,425 286,831l1342 -440c0,0 -42,-192 -164,-385l1995 11 0 3042 -4493 0 0 -3064z"/>
    <path class="fil7" d="M5983 2170c0,0 347,-1 826,-3 44,126 81,304 99,443l1330 -444 1400 -8 0 2338 -3677 0 22 -2326z"/>
    <path class="fil5" d="M72 5777c0,0 68,-386 208,-656 140,-271 304,-560 837,-797 49,-22 170,549 170,549l81 591 -258 57c0,0 -130,-75 -338,-34 -209,40 -300,188 -300,188l-113 65 -287 37z"/>
    <path class="fil5" d="M5518 6163l-622 13c9,-182 -33,-405 -198,-532 -165,-127 -487,-175 -724,23 -238,197 -189,508 -189,508l-2329 2c27,-147 -13,-370 -125,-492 -112,-122 -244,-181 -300,-198l86 -1163c198,-90 348,-117 348,-117l1795 4 905 712c0,0 586,39 1024,331 180,120 268,295 308,459 59,236 21,450 21,450z"/>
    <path class="fil8" d="M912 6513c-261,0 -473,-212 -472,-473 0,-189 57,-319 209,-406 153,-86 203,-52 266,-66 260,1 471,214 470,474 0,260 -213,472 -473,471z"/>
    <path class="fil5" d="M912 6239c-109,0 -198,-89 -198,-199 0,-109 89,-198 199,-198 110,1 198,90 198,199 0,110 -90,199 -199,198z"/>
    <path class="fil8" d="M4350 6544c-261,-1 -472,-213 -472,-474 0,-260 212,-472 473,-472 261,1 473,213 473,474 -1,260 -214,472 -474,472z"/>
    <path class="fil5" d="M4350 6270c-110,-1 -199,-90 -199,-200 1,-109 90,-198 200,-198 110,1 198,90 198,200 0,109 -89,198 -199,198z"/>
    <path class="fil9" d="M1429 5884c66,-33 151,-66 230,-66 159,0 219,116 319,131 100,15 247,-135 471,-136 225,-2 219,126 380,149 160,24 283,-175 507,-168 224,7 252,110 346,149 32,12 73,17 114,17 -30,123 -13,223 -13,223l-2331 2c15,-75 9,-188 -23,-301z"/>
    <path class="fil9" d="M5525 6169c0,0 -85,0 -197,2 -4,-73 -48,-131 -84,-233 -41,-114 42,-221 -18,-369 -59,-148 -162,-77 -302,-169 -139,-92 -120,-148 -212,-197 -91,-48 -187,-12 -340,-55 -93,-26 -191,-144 -242,-253 27,22 121,22 182,22 61,0 482,39 920,331 178,118 230,304 272,467 13,53 21,104 26,153 19,170 -5,301 -5,301z"/>
    <path class="fil7" d="M5074 5564c0,0 12,162 114,239 102,79 340,47 340,47 0,0 -4,-57 -22,-130 -13,-52 -33,-113 -65,-167l-367 11z"/>
    <path class="fil5" d="M77 5710l369 -269 81 173c-244,239 -161,556 -161,556l-366 3 77 -463z"/>
    <polygon class="fil7" points="3111,4390 2939,4393 3361,5109 3878,4945 "/>
    <polygon class="fil7" points="2696,4405 3052,5105 1889,5112 1880,4395 "/>
    <path class="fil7" d="M575 5091l1010 11 26 -693c0,0 -398,68 -636,227 -238,159 -400,455 -400,455z"/>
    <polygon class="fil8" points="5855,7075 10631,7075 10639,7568 5834,7550 "/>
    <path class="fil9" d="M9638 2158l-596 0c0,0 -115,190 -42,422 74,232 222,390 159,622 -64,232 -221,369 -211,611 11,242 126,495 126,569 0,74 4,116 4,116l560 -2 0 -2338z"/>
    <polygon class="fil8" points="7026,4970 8410,4970 8410,5821 7037,5821 "/>
    <polygon class="fil5" points="6965,3350 8564,3341 8539,3078 6998,3061 "/>
    <polygon class="fil5" points="5941,5941 9745,5951 10615,6950 5873,6963 "/>
    <polygon class="fil8" points="6773,6492 6912,6745 9673,6745 9501,6492 "/>
    <path class="fil9" d="M5928 5954l-24 423c245,63 553,7 680,-25 127,-31 316,-136 489,-158 173,-21 307,74 587,111 280,37 330,-126 548,-153 219,-26 386,90 654,122 268,31 311,-122 480,-137 169,-16 387,110 524,131 138,22 166,6 166,6l-287 -323 -3817 3z"/>
    <path class="fil5" d="M8564 3275l-247 -107c0,0 -17,-618 -618,-593 -602,25 -882,740 -478,1193 403,453 1071,167 1071,167l107 214c0,0 -871,430 -1382,-188 -360,-435 -292,-1069 64,-1414l709 -232c789,64 774,960 774,960z"/>
    <path class="fil3" d="M2293 2301l-729 970 54 313 221 -12 138 -148 -19 -108 105 17c40,-39 58,-61 98,-100l-25 -110 108 17 107 -108 -31 -103 104 23 87 -108 -37 -75 106 -7 131 -168 -418 -293z"/>
    <polygon class="fil4" points="2414,2346 1615,3581 1921,3591 2707,2622 "/>
    <path class="fil3" d="M2711 1921c0,84 68,152 152,152 84,0 152,-68 152,-152 0,-51 -26,-97 -65,-124 8,-10 17,-20 25,-30 44,36 527,440 527,440l-496 677 -1003 -814 510 -713 435 386c-8,13 -16,26 -24,38 -19,-7 -39,-12 -61,-12 -84,0 -152,68 -152,152z"/>
    <path class="fil4" d="M2699 2639c0,0 22,-136 65,-221 45,-85 154,-28 266,-119 112,-92 24,-283 125,-378l382 296 -528 667 -310 -245z"/>
    <path class="fil8" d="M2957 1963c-12,8 -30,16 -49,15 -19,-1 -33,-3 -44,-8 -40,-157 29,-329 178,-411 165,-90 371,-40 476,111 -7,13 -19,29 -38,37 -15,8 -28,11 -39,12 -80,-111 -232,-147 -356,-80 -116,65 -167,202 -128,324z"/>
    <polygon class="fil7" points="3346,1260 3346,1964 4895,2214 4889,1243 "/>
    <polygon class="fil5" points="4157,1215 4248,1220 4253,1874 4151,1848 "/>
    <polygon class="fil5" points="4436,1217 4533,1218 4541,1940 4439,1913 "/>
    <polygon class="fil5" points="3859,1217 3956,1213 3957,1778 3856,1755 "/>
    <polygon class="fil5" points="3544,1217 3637,1214 3646,1698 3546,1673 "/>
    <path class="fil8" d="M5122 368l-719 867 813 432 1 -381c0,0 824,-102 1261,173 437,275 560,966 560,966l1029 -321c0,0 -145,-706 -989,-1225 -844,-519 -1891,-37 -1891,-37l-65 -474z"/>
   </g>
  </g>
 </g>
</svg>
